<svg width="4096" height="2731" viewBox="0 0 4096 2731" fill="none" xmlns="http://www.w3.org/2000/svg">
<path fill-rule="evenodd" clip-rule="evenodd" d="M4096 0H0V2705H0.5V2397L11 2396.5C11.6665 2396.83 13.7002 2397.6 16.5 2398C18.2422 2398.25 19.7368 2396.52 21.292 2394.71C22.8608 2392.89 24.4912 2391 26.5 2391C29.7002 2391 33.5 2395 35 2397C38 2395.83 44.8999 2393.6 48.5 2394C49.7573 2394.14 50.4292 2394.75 51.2568 2395.5C53.3921 2397.43 56.5654 2400.3 73.5 2398.5C78.1504 2398.01 84.9546 2397.31 92.9248 2396.51C125.23 2393.23 176.688 2388.01 181.5 2386C182.536 2385.57 183.602 2385.11 184.695 2384.63C189.933 2382.37 195.795 2379.83 202 2379C204.505 2378.67 206.397 2378.95 208.532 2379.26C212.789 2379.89 218.014 2380.66 231 2377C246.6 2372.6 279.5 2360.83 294 2355.5C293.667 2355.17 294.8 2353.9 302 2351.5C306.953 2349.85 319.631 2346.68 331.363 2343.75C340.948 2341.36 349.903 2339.12 353.5 2338C355.816 2337.28 364.629 2334.12 376.335 2329.93C405.059 2319.65 451.198 2303.13 461.5 2301C473.1 2298.6 492.333 2293 500.5 2290.5C501.167 2288.17 503.3 2283.4 506.5 2283C507.728 2282.85 509.239 2282.74 510.902 2282.62C514.656 2282.36 519.188 2282.04 523 2281C527.4 2279.8 538.5 2276.5 543.5 2275C556.167 2272.17 581.9 2266.5 583.5 2266.5C584.119 2266.5 584.689 2266.64 585.301 2266.8C586.667 2267.14 588.238 2267.54 591 2266.5C592.333 2266 594.778 2264.78 597.778 2263.28C603.778 2260.28 612 2256.17 618 2254.5C625.421 2252.44 630.123 2251.74 633.226 2251.27C633.886 2251.18 634.474 2251.09 635 2251C635.982 2250.84 636.964 2250.19 638.279 2249.33C640.982 2247.55 645.092 2244.85 653.5 2243.5C656.157 2243.07 665.747 2241.27 679.602 2238.67C730.937 2229.02 840.82 2208.36 873.5 2206C906.7 2203.6 931 2203.33 939 2203.5C940.167 2199 943.2 2190 946 2190C946.922 2190 959.218 2189.24 977.629 2188.09C1029.12 2184.9 1128.46 2178.74 1160.5 2178C1204 2177 1366.5 2177 1371 2177C1373.74 2177 1377.6 2178.67 1380.87 2180.09C1382.97 2181 1384.83 2181.8 1386 2182C1387.14 2182.19 1389.43 2182.31 1391.92 2182.44C1395.98 2182.64 1400.57 2182.88 1401.5 2183.5C1402.06 2183.87 1404.66 2184.81 1407.79 2185.94C1413.03 2187.83 1419.75 2190.25 1421 2191.5C1423 2193.5 1433 2195 1436.5 2195.5C1439.32 2195.9 1441.81 2197.28 1446.07 2199.62C1447.1 2200.19 1448.23 2200.82 1449.5 2201.5C1452.4 2203.06 1453.61 2206.42 1454.9 2210.01C1456.51 2214.47 1458.24 2219.29 1463.5 2221.5C1471.1 2224.7 1534 2247.5 1564.5 2258.5L1568 2253C1569.67 2252.5 1573.6 2252.8 1576 2258C1579 2264.5 1584.5 2266.5 1590 2267C1593.89 2267.35 1629.3 2281.22 1650.4 2289.48C1659.13 2292.9 1665.41 2295.35 1666 2295.5C1667.6 2295.9 1676.33 2299 1680.5 2300.5L1687.5 2302.5L1691.5 2298.5L1696.5 2304C1695.33 2306.17 1694.7 2310.6 1701.5 2311C1706.46 2311.29 1712.44 2312.43 1717.16 2313.34C1720.52 2313.98 1723.25 2314.5 1724.5 2314.5C1726.9 2314.5 1734.83 2319.17 1738.5 2321.5C1740.17 2320.67 1744.7 2319.7 1749.5 2322.5C1754.3 2325.3 1758.5 2326.33 1760 2326.5C1772 2328.83 1801.6 2334.9 1824 2340.5C1852 2347.5 1902 2360 1909.5 2362C1912.27 2362.74 1914.57 2363.75 1916.74 2364.71C1920.44 2366.34 1923.77 2367.82 1928.5 2367.5C1932.45 2367.24 1935.57 2368.5 1939.39 2370.04C1942.82 2371.43 1946.82 2373.05 1952.5 2374C1958.93 2375.07 1983.17 2381.74 2005.66 2387.94C2025.15 2393.3 2043.32 2398.3 2047.5 2399C2051.73 2399.71 2054.19 2398.42 2056.19 2397.38C2058.43 2396.21 2060.09 2395.35 2063 2398C2068.5 2403 2071.5 2404.5 2074.5 2405C2075.74 2405.21 2078 2404.14 2080.5 2402.95C2084.08 2401.26 2088.15 2399.33 2090.5 2400.5C2092.17 2401.34 2093.15 2402.35 2094.04 2403.28C2095.29 2404.57 2096.38 2405.71 2099 2406C2102.6 2406.4 2108.17 2403.83 2110.5 2402.5L2114.5 2403.5L2117.5 2402L2126 2406.5L2130.5 2409.5C2135 2408.83 2144.7 2407.5 2147.5 2407.5C2148.66 2407.5 2150.8 2407.72 2153.32 2407.98C2158.4 2408.5 2164.99 2409.17 2168 2408.5C2171.6 2407.7 2181.17 2404.5 2185.5 2403C2188 2404.33 2193.6 2407.4 2196 2409C2199 2411 2204 2410.5 2206 2407.5C2206.15 2407.27 2206.3 2407.05 2206.43 2406.84C2208.1 2404.28 2208.92 2403.04 2214 2403.5C2216.8 2403.75 2218.56 2402.84 2220.41 2401.88C2222.2 2400.96 2224.06 2400 2227 2400C2230.29 2400 2233.27 2403.3 2236.12 2406.45C2238.48 2409.05 2240.74 2411.55 2243 2412C2247 2412.8 2252.33 2410.33 2254.5 2409L2259 2413.5H2280L2284 2411H2292C2292.17 2409.67 2293.4 2407 2297 2407C2299.43 2407 2300.84 2408.61 2302.42 2410.4C2303.75 2411.92 2305.2 2413.58 2307.5 2414.5C2310.47 2415.69 2313.96 2413.35 2316.94 2411.36C2318.98 2410 2320.78 2408.8 2322 2409C2323.48 2409.25 2324.83 2411.31 2326.25 2413.46C2327.7 2415.68 2329.22 2417.99 2331 2418.5C2333.8 2419.3 2342.83 2419.17 2347 2419C2353 2418.33 2365.6 2417 2368 2417C2369.28 2417 2370.2 2418 2371.18 2419.07C2372.49 2420.51 2373.92 2422.07 2376.5 2421.5C2378.47 2421.06 2379.58 2420.14 2380.71 2419.21C2382.15 2418.01 2383.63 2416.78 2387 2416.5C2390.9 2416.17 2398.62 2417.97 2404.78 2419.4C2408.08 2420.16 2410.93 2420.83 2412.5 2421C2417 2421.5 2440.5 2424 2448.5 2424C2454.9 2424 2467.17 2420 2472.5 2418L2484.5 2423.5L2494.5 2423L2505 2422.5L2517.5 2425L2522 2423L2536 2428.5V2423.5H2544.5L2549 2420.5L2556 2428.5L2563.5 2425.5L2570 2429C2573.83 2427.33 2582.2 2424.1 2585 2424.5C2587.8 2424.9 2592.17 2429.67 2594 2432L2599 2430L2616 2428L2621.5 2433C2626 2429.83 2635.7 2423.7 2638.5 2424.5C2641.3 2425.3 2644.33 2427.17 2645.5 2428H2653.5C2654.17 2429.67 2656.4 2432.8 2660 2432C2661.85 2431.59 2664.22 2430.75 2666.49 2429.95C2669.75 2428.8 2672.82 2427.71 2674 2428C2674.75 2428.19 2675.57 2429.29 2676.54 2430.6C2678.16 2432.77 2680.19 2435.5 2683 2435.5C2685.15 2435.5 2686.97 2433.32 2688.76 2431.16C2690.72 2428.81 2692.65 2426.48 2695 2427C2697.57 2427.57 2698.51 2429.94 2699.31 2431.96C2699.91 2433.47 2700.43 2434.79 2701.5 2435C2704 2435.5 2717.5 2437 2721 2437C2723.8 2437 2728.5 2434 2730.5 2432.5C2731.33 2435.17 2733.9 2440.5 2737.5 2440.5C2740.32 2440.5 2742.56 2439.71 2744.57 2439C2745.77 2438.58 2746.88 2438.19 2748 2438C2749.38 2437.77 2751.18 2438.7 2753.25 2439.77C2755.7 2441.04 2758.53 2442.5 2761.5 2442.5C2764.25 2442.5 2765.62 2441.75 2767 2441C2768.38 2440.25 2769.75 2439.5 2772.5 2439.5C2776.9 2439.5 2783.67 2441.83 2786.5 2443C2789 2442.17 2794.8 2440.6 2798 2441C2801.2 2441.4 2808 2443.83 2811 2445C2812.83 2444.5 2817 2443.5 2819 2443.5C2820.19 2443.5 2822.18 2444.18 2824.26 2444.9C2826.54 2445.68 2828.93 2446.5 2830.5 2446.5C2832.9 2446.5 2837.5 2445.17 2839.5 2444.5L2842 2446.5C2842.33 2445.17 2843.8 2442.5 2847 2442.5C2851 2442.5 2854 2442.5 2859 2445.5C2862.07 2447.34 2863.45 2445.6 2864.63 2444.1C2865.37 2443.15 2866.04 2442.31 2867 2442.5C2867.92 2442.68 2869.5 2443.74 2871.43 2445.02C2874.79 2447.25 2879.2 2450.18 2883 2450.5C2886.43 2450.79 2889.54 2450.25 2892.5 2449.75C2894.72 2449.37 2896.86 2449 2899 2449C2901.56 2449 2902.94 2450.31 2904.15 2451.45C2905.3 2452.55 2906.29 2453.49 2908 2453C2910.8 2452.2 2915.5 2448.33 2917.5 2446.5C2921.67 2447.83 2930.6 2450.5 2933 2450.5C2935.4 2450.5 2940.67 2451.83 2943 2452.5C2944.83 2451.5 2949.2 2449.5 2952 2449.5C2953.37 2449.5 2954.12 2450.19 2955.05 2451.03C2956.48 2452.33 2958.32 2454 2963.5 2454C2968.83 2454 2972.2 2452.82 2974.7 2451.94C2976.19 2451.42 2977.38 2451 2978.5 2451C2979.91 2451 2981.53 2451.44 2983.07 2451.86C2984.81 2452.33 2986.44 2452.77 2987.5 2452.5C2988.29 2452.3 2989.54 2451.64 2990.92 2450.91C2993.05 2449.79 2995.48 2448.5 2997 2448.5C3003.51 2450.45 3007.26 2447.54 3010.19 2445.26C3011.77 2444.04 3013.1 2443 3014.5 2443C3018.5 2443 3036.5 2446.5 3043.5 2448C3046.81 2448.71 3048.22 2446.4 3049.63 2444.08C3051.21 2441.5 3052.78 2438.92 3057 2440.5C3061.1 2442.04 3063.63 2445.03 3065.72 2447.5C3067.71 2449.85 3069.31 2451.74 3071.5 2451.5C3071.93 2451.45 3072.36 2451.4 3072.79 2451.35C3076.93 2450.85 3081.24 2450.33 3083.5 2453.5C3086 2457 3094 2458 3098.5 2458.5C3100.9 2458.77 3105.57 2457.61 3110.17 2456.48C3114.2 2455.48 3118.17 2454.5 3120.5 2454.5C3123.14 2454.5 3124.94 2457.01 3126.65 2459.38C3128.17 2461.49 3129.61 2463.5 3131.5 2463.5C3132.89 2463.5 3135.18 2463.08 3137.83 2462.59C3142.82 2461.67 3149.08 2460.52 3153 2461.5C3156.2 2462.3 3157.55 2464.95 3158.72 2467.25C3159.75 2469.26 3160.63 2471 3162.5 2471C3163.94 2471 3165.58 2470.35 3167.44 2469.61C3170.73 2468.3 3174.71 2466.72 3179.5 2468C3183.38 2469.03 3185.39 2470.6 3187.46 2472.22C3189.39 2473.74 3191.38 2475.29 3195 2476.5C3199.53 2478.01 3201.87 2476.6 3204.12 2475.25C3205.59 2474.36 3207.02 2473.5 3209 2473.5C3211.44 2473.5 3216.26 2475.05 3221.2 2476.63C3226.38 2478.3 3231.68 2480 3234.5 2480C3240 2480 3249.5 2480 3253.5 2481C3257.5 2482 3272.5 2485.5 3279.5 2486.5C3282.71 2486.96 3285.28 2485 3288 2482.94C3291.21 2480.5 3294.62 2477.92 3299.5 2479C3303.89 2479.97 3305.42 2482.73 3306.89 2485.36C3308.43 2488.12 3309.89 2490.74 3314.5 2491C3319.63 2491.28 3321.83 2487.67 3323.71 2484.61C3325.12 2482.29 3326.35 2480.28 3328.5 2480.5C3331.34 2480.78 3333.86 2485.27 3336.06 2489.18C3337.72 2492.15 3339.21 2494.78 3340.5 2495C3342.17 2495.28 3344.31 2492.45 3346.31 2489.8C3347.9 2487.7 3349.39 2485.72 3350.5 2485.5C3351.84 2485.23 3356.89 2488.4 3361.68 2491.4C3365.86 2494.01 3369.84 2496.5 3371 2496.5C3373 2496.5 3384.83 2495.5 3390.5 2495L3398 2501C3397.67 2497.17 3397.8 2489.5 3401 2489.5C3403.67 2489.5 3408.33 2491.5 3413.52 2493.72C3416.11 2494.83 3418.83 2496 3421.5 2497C3429.5 2500 3450.5 2505 3470.5 2504.5C3490.5 2504 3583 2512 3599 2515C3615 2518 3645 2523 3656 2523C3660.93 2523 3663.86 2520.59 3666.75 2518.19C3670.31 2515.25 3673.83 2512.35 3681 2514C3686.37 2515.24 3689.44 2518.1 3692.88 2521.32C3697.77 2525.88 3703.42 2531.15 3717.5 2533.5C3726.91 2535.07 3759.89 2538.86 3800.2 2543.5C3862.74 2550.7 3942.91 2559.92 3980 2566C4028.8 2574 4078 2581.17 4096 2583.5V0Z" fill="black"/>
</svg>
